<?xml version="1.0" encoding="UTF-8"?>
<svg xmlns="http://www.w3.org/2000/svg" id="Layer_1" data-name="Layer 1" viewBox="0 0 67 67">
  <defs>
    <style>
      .cls-1 {
        stroke: #ffbc98;
        stroke-width: 1.94px;
      }

      .cls-1, .cls-2, .cls-3 {
        fill: none;
        stroke-miterlimit: 10;
      }

      .cls-2 {
        stroke-dasharray: 0 0 1.78 1.78;
      }

      .cls-2, .cls-3 {
        stroke: #ffbd98;
        stroke-width: 1.15px;
      }
    </style>
  </defs>
  <circle class="cls-1" cx="33.5" cy="33.5" r="32.5"></circle>
  <g>
    <path class="cls-3" d="m40.63,36.17c0,2.32-.75,4.56-2.14,6.42-.34.45-.53,1-.53,1.6,0,1.48,1.2,2.67,2.67,2.67s2.67-1.2,2.67-2.67c0-.6-.2-1.16-.53-1.6-1.39-1.86-2.14-4.1-2.14-6.42,0-6.41,1.78-12.69,5.14-18.15l1.99-3.24"></path>
    <line class="cls-3" x1="19.24" y1="52.22" x2="19.24" y2="49.54"></line>
    <line class="cls-3" x1="33.5" y1="52.22" x2="33.5" y2="49.54"></line>
    <line class="cls-3" x1="29.93" y1="53.11" x2="29.93" y2="49.54"></line>
    <line class="cls-3" x1="22.8" y1="53.11" x2="22.8" y2="49.54"></line>
    <line class="cls-3" x1="15.67" y1="53.11" x2="15.67" y2="49.54"></line>
    <line class="cls-3" x1="26.37" y1="54" x2="26.37" y2="49.54"></line>
    <line class="cls-3" x1="40.63" y1="54" x2="40.63" y2="49.54"></line>
    <line class="cls-3" x1="37.07" y1="53.11" x2="37.07" y2="49.54"></line>
    <line class="cls-3" x1="47.76" y1="52.22" x2="47.76" y2="49.54"></line>
    <line class="cls-3" x1="44.2" y1="53.11" x2="44.2" y2="49.54"></line>
    <line class="cls-3" x1="51.33" y1="53.11" x2="51.33" y2="49.54"></line>
    <line class="cls-3" x1="12.11" y1="34.39" x2="54.89" y2="34.39"></line>
    <path class="cls-3" d="m12.11,54c1.17,0,2.33-.27,3.38-.8l.38-.19c1.05-.52,2.2-.8,3.38-.8s2.33.27,3.38.8l.38.19c1.05.52,2.2.8,3.38.8s2.33-.27,3.38-.8l.38-.19c1.05-.52,2.2-.8,3.38-.8s2.33.27,3.38.8l.38.19c1.05.52,2.2.8,3.38.8s2.33-.27,3.38-.8l.38-.19c1.05-.52,2.2-.8,3.38-.8s2.33.27,3.38.8l.38.19c1.05.52,2.2.8,3.38.8"></path>
    <path class="cls-3" d="m54.89,39.74c-1.18,0-2.33-.28-3.38-.79l-.37-.2c-1.05-.52-2.2-.79-3.38-.79s-2.33.28-3.38.79l-.37.2c-.23.12-.46.21-.7.3"></path>
    <path class="cls-3" d="m37.96,39.25c-.24-.09-.47-.19-.7-.3l-.37-.2c-1.05-.52-2.2-.79-3.38-.79s-2.33.28-3.38.79l-.37.2c-1.05.52-2.2.79-3.38.79s-2.33-.28-3.38-.79l-.37-.2c-1.05-.52-2.2-.79-3.38-.79s-2.33.28-3.38.79l-.37.2c-1.05.52-2.2.79-3.38.79"></path>
    <line class="cls-3" x1="26.37" y1="44.2" x2="26.37" y2="42.41"></line>
    <line class="cls-3" x1="33.5" y1="44.2" x2="33.5" y2="42.41"></line>
    <line class="cls-3" x1="29.93" y1="47.76" x2="29.93" y2="45.98"></line>
    <line class="cls-3" x1="47.76" y1="44.2" x2="47.76" y2="42.41"></line>
    <line class="cls-3" x1="51.33" y1="47.76" x2="51.33" y2="45.98"></line>
    <line class="cls-3" x1="22.8" y1="47.76" x2="22.8" y2="45.98"></line>
    <line class="cls-3" x1="19.24" y1="44.2" x2="19.24" y2="42.41"></line>
    <line class="cls-3" x1="15.67" y1="47.76" x2="15.67" y2="45.98"></line>
    <line class="cls-2" x1="37.96" y1="31.72" x2="31.72" y2="25.48"></line>
    <path class="cls-3" d="m23.75,13c.83,1.02,1.63,2.06,2.41,3.13l3.44,4.74c.21.29.34.65.34,1.04,0,.98-.8,1.78-1.78,1.78-.39,0-.75-.12-1.04-.34l-4.75-3.44c-2.89-2.1-5.62-4.41-8.16-6.92"></path>
    <line class="cls-3" x1="26.81" y1="17.02" x2="23.26" y2="20.57"></line>
  </g>
</svg>
