<?xml version="1.0" encoding="UTF-8"?>
<svg xmlns="http://www.w3.org/2000/svg" id="Layer_1" data-name="Layer 1" viewBox="0 0 67 67">
  <defs>
    <style>
      .cls-1, .cls-2 {
        fill: none;
      }

      .cls-1, .cls-3 {
        stroke-width: 0px;
      }

      .cls-2 {
        stroke: #ffbc98;
        stroke-miterlimit: 10;
        stroke-width: 1.94px;
      }

      .cls-3 {
        fill: #ffbd98;
      }
    </style>
  </defs>
  <path class="cls-3" d="m24.51,48.92h3.14v-1.97h-3.14v1.97Zm3.14,0c.54,0,.99-.44.99-.99s-.44-.99-.99-.99v1.97Zm-3.14-1.97c-.54,0-.99.44-.99.99s.44.99.99.99v-1.97Z"></path>
  <path class="cls-3" d="m33.11,48.92h3.14v-1.97h-3.14v1.97Zm3.14,0c.54,0,.99-.44.99-.99s-.44-.99-.99-.99v1.97Zm-3.14-1.97c-.54,0-.99.44-.99.99s.44.99.99.99v-1.97Z"></path>
  <path class="cls-3" d="m15.94,48.92h3.12v-1.97h-3.12v1.97Zm3.12,0c.54,0,.99-.44.99-.99s-.44-.99-.99-.99v1.97Zm-3.12-1.97c-.54,0-.99.44-.99.99s.44.99.99.99v-1.97Z"></path>
  <path class="cls-3" d="m41.7,48.92h3.12v-1.97h-3.12v1.97Zm3.12,0c.54,0,.99-.44.99-.99s-.44-.99-.99-.99v1.97Zm-3.12-1.97c-.54,0-.99.44-.99.99s.44.99.99.99v-1.97Z"></path>
  <path class="cls-3" d="m50.33,48.92h3.14v-1.97h-3.14v1.97Zm3.14,0c.54,0,.99-.44.99-.99s-.44-.99-.99-.99v1.97Zm-3.14-1.97c-.54,0-.99.44-.99.99s.44.99.99.99v-1.97Z"></path>
  <path class="cls-3" d="m24.51,53.92h3.14v-1.97h-3.14v1.97Zm3.14,0c.54,0,.99-.44.99-.99s-.44-.99-.99-.99v1.97Zm-3.14-1.97c-.54,0-.99.44-.99.99s.44.99.99.99v-1.97Z"></path>
  <path class="cls-3" d="m33.11,53.92h3.14v-1.97h-3.14v1.97Zm3.14,0c.54,0,.99-.44.99-.99s-.44-.99-.99-.99v1.97Zm-3.14-1.97c-.54,0-.99.44-.99.99s.44.99.99.99v-1.97Z"></path>
  <path class="cls-3" d="m15.94,53.92h3.12v-1.97h-3.12v1.97Zm3.12,0c.54,0,.99-.44.99-.99s-.44-.99-.99-.99v1.97Zm-3.12-1.97c-.54,0-.99.44-.99.99s.44.99.99.99v-1.97Z"></path>
  <path class="cls-3" d="m41.7,53.92h3.12v-1.97h-3.12v1.97Zm3.12,0c.54,0,.99-.44.99-.99s-.44-.99-.99-.99v1.97Zm-3.12-1.97c-.54,0-.99.44-.99.99s.44.99.99.99v-1.97Z"></path>
  <path class="cls-3" d="m50.33,53.92h3.14v-1.97h-3.14v1.97Zm3.14,0c.54,0,.99-.44.99-.99s-.44-.99-.99-.99v1.97Zm-3.14-1.97c-.54,0-.99.44-.99.99s.44.99.99.99v-1.97Z"></path>
  <rect class="cls-1" x=".14" y=".36" width="66.94" height="66.94"></rect>
  <path class="cls-2" d="m33.61,66.33c17.95,0,32.5-14.55,32.5-32.5S51.56,1.33,33.61,1.33,1.11,15.88,1.11,33.83s14.55,32.5,32.5,32.5Z"></path>
  <g>
    <path class="cls-3" d="m49.41,19.94c-.14,0-.27-.05-.38-.16l-2.47-2.47-2.47,2.47c-.21.21-.55.21-.76,0-.21-.21-.21-.55,0-.76l2.85-2.85c.21-.21.55-.21.76,0l2.85,2.85c.21.21.21.55,0,.76-.1.1-.24.16-.38.16Z"></path>
    <path class="cls-3" d="m46.56,31.33c-.29,0-.53-.24-.53-.53v-14.24c0-.29.24-.53.53-.53s.53.24.53.53v14.24c0,.29-.24.53-.53.53Z"></path>
    <path class="cls-3" d="m36.59,19.94c-.14,0-.27-.05-.38-.16l-2.47-2.47-2.47,2.47c-.21.21-.55.21-.76,0s-.21-.55,0-.76l2.85-2.85c.21-.21.55-.21.76,0l2.85,2.85c.21.21.21.55,0,.76-.1.1-.24.16-.38.16Z"></path>
    <path class="cls-3" d="m33.74,31.33c-.29,0-.53-.24-.53-.53v-14.24c0-.29.24-.53.53-.53s.53.24.53.53v14.24c0,.29-.24.53-.53.53Z"></path>
    <path class="cls-3" d="m23.77,19.94c-.14,0-.27-.05-.38-.16l-2.47-2.47-2.47,2.47c-.21.21-.55.21-.76,0-.21-.21-.21-.55,0-.76l2.85-2.85c.21-.21.55-.21.76,0l2.85,2.85c.21.21.21.55,0,.76-.1.1-.24.16-.38.16Z"></path>
    <path class="cls-3" d="m20.93,31.33c-.29,0-.53-.24-.53-.53v-14.24c0-.29.24-.53.53-.53s.53.24.53.53v14.24c0,.29-.24.53-.53.53Z"></path>
    <path class="cls-3" d="m33.74,39.16c-2.51,0-4.31-.76-6.06-1.49-1.65-.7-3.22-1.35-5.33-1.35h-7.83c-.29,0-.53-.24-.53-.53s.24-.53.53-.53h7.83c2.33,0,4.07.73,5.75,1.44,1.72.72,3.35,1.41,5.64,1.41s3.92-.68,5.64-1.41c1.68-.71,3.42-1.44,5.75-1.44h7.83c.29,0,.53.24.53.53s-.24.53-.53.53h-7.83c-2.12,0-3.68.66-5.33,1.35-1.74.73-3.55,1.49-6.06,1.49Z"></path>
    <path class="cls-3" d="m33.74,42.72c-2.51,0-4.31-.76-6.06-1.49-1.65-.7-3.22-1.35-5.33-1.35h-7.83c-.29,0-.53-.24-.53-.53s.24-.53.53-.53h7.83c2.33,0,4.07.73,5.75,1.44,1.72.72,3.35,1.41,5.64,1.41s3.92-.68,5.64-1.41c1.68-.71,3.42-1.44,5.75-1.44h7.83c.29,0,.53.24.53.53s-.24.53-.53.53h-7.83c-2.12,0-3.68.66-5.33,1.35-1.74.73-3.55,1.49-6.06,1.49Z"></path>
  </g>
</svg>
